<?xml version="1.0" encoding="utf-8"?><svg xmlns="http://www.w3.org/2000/svg" xmlns:xlink="http://www.w3.org/1999/xlink"><symbol viewBox="0 0 100.4 100.4" id="1_teacher" xmlns="http://www.w3.org/2000/svg"><path d="M20.4 19.3L32 24.4c-2.3 3.4-3.5 7.3-3.5 11.4 0 11.2 9.1 20.4 20.4 20.4s20.4-9.1 20.4-20.4c0-4-1.2-8-3.4-11.3l10.2-4.8v19.4L73 45.7c-.2.5-.2 1 .1 1.4s.8.7 1.3.7h5.9c.5 0 1-.2 1.2-.7.3-.4.3-.9.1-1.4l-2.7-6.6V18.4c0-.8-.1-1.4-1.5-2-.3-.1-27.8-12.3-27.8-12.3-.4-.2-.8-.2-1.2 0l-28 12.4c-.5.2-.9.8-.9 1.4s.3 1.1.9 1.4zm45.8 16.5c0 9.6-7.8 17.4-17.4 17.4s-17.4-7.8-17.4-17.4c0-3.7 1.2-7.2 3.3-10.2l13.6 6.1c.2.1.4.1.6.1s.4 0 .6-.1l13.4-6c2.2 3 3.3 6.5 3.3 10.1zm10.5 9l.7-1.5.6 1.5h-1.3zM49 7.1l24.3 10.8L49 28.7 24.7 17.9 49 7.1zm.4 52.7C29.9 59.8 14 75.7 14 95.2c0 .8.7 1.5 1.5 1.5h67.8c.8 0 1.5-.7 1.5-1.5 0-19.5-15.9-35.4-35.4-35.4zM17.1 93.7c.8-17.2 15-30.9 32.4-30.9S81 76.6 81.8 93.7H17.1z"/></symbol><symbol viewBox="0 0 100 100" id="2_helmet" xmlns="http://www.w3.org/2000/svg"><path d="M80.597 56.212a73.465 73.465 0 00-.269-3.568c-.751-7.432-3.041-17.866-9.693-25.375-5.801-6.547-13.909-9.866-24.103-9.866-4.993 0-9.598 1.06-13.583 2.572a1.483 1.483 0 00-.464.182c-7.672 3.015-12.948 7.654-14.084 9.444-8.621 7.304-13.52 17.821-13.52 29.217 0 .126.016.252.047.374.083.32 2.123 7.902 10.929 11.883 12.291 5.556 27.919 11.517 44.603 11.517 3.312 0 6.664-.234 10.04-.754 21.819-3.354 24.617-8.399 24.617-12.42.001-.893.001-3.6-14.52-13.206zM68.382 29.25c10.383 11.709 9.485 31.693 9.109 36.41l-17.477 4.37c.192-4.176.466-13.986-.601-22.917-1.293-10.812-4.648-22.97-18.18-26.286a33.891 33.891 0 015.299-.424c9.293 0 16.645 2.976 21.85 8.847zm-34.864-6.304c14.005.045 20.868 7.395 22.916 24.522.995 8.331.777 17.701.597 22.008l-5.437-3.079c.45-4.675 1.669-23.928-7.559-33.028-5.833-5.751-11.994-7.475-16.839-7.241a40.036 40.036 0 016.322-3.182zm-12.745 8.592c.106-.078.207-.158.299-.237.296-.238.588-.478.892-.708 3.426-2.225 12.009-2.931 19.966 4.912 7.932 7.822 7.126 25.188 6.712 30.168-3.924-.168-15.499-.948-24.934-4.463-6.283-2.34-11.169-6.349-14.531-11.906 1.912-6.913 5.9-13.086 11.596-17.766zm49.272 47.335c-19.603 3.018-38.598-4.044-52.951-10.532-6.872-3.105-8.887-8.685-9.211-9.732.01-1.77.163-3.513.424-5.227 4.461 5.977 10.139 9.069 14.355 10.639 11.048 4.116 24.432 4.628 26.928 4.688l8.077 4.575c.01.006.022.007.032.013.1.054.206.099.318.129.02.005.04.006.06.01a1.564 1.564 0 00.327.043h.004c.115 0 .226-.017.333-.042.009-.002.019-.001.028-.003l20.48-5.121a1.498 1.498 0 001.125-1.274c.021-.171.346-2.956.328-7.14 7.163 4.877 11.154 8.461 11.415 9.52.001 4.021-7.426 7.202-22.072 9.454z"/></symbol><symbol viewBox="0 0 100 100" id="3_key" xmlns="http://www.w3.org/2000/svg"><path d="M86.776 33.97l-7.106-6.611 4.926-5.294a7.101 7.101 0 001.876-4.6c.043-1.796-.61-3.413-1.84-4.554-2.465-2.288-6.641-1.974-9.12.689L41.613 50.008c-7.916-3.722-17.394-1.937-23.437 4.547-7.612 8.179-7.153 21.027 1.023 28.642 3.784 3.521 8.658 5.436 13.797 5.436a20.11 20.11 0 0014.843-6.457 20.251 20.251 0 002.863-23.705l14.529-15.606 7.104 6.616c.291.271.677.406 1.076.401a1.502 1.502 0 001.045-.478l4.109-4.422a1.501 1.501 0 00-.076-2.119l-7.104-6.615 2.126-2.279 7.102 6.62a1.502 1.502 0 002.12-.075l4.117-4.422c.271-.291.416-.678.401-1.076a1.487 1.487 0 00-.475-1.046zm-5.214 3.4l-7.101-6.619a1.5 1.5 0 00-2.119.074l-4.173 4.474a1.502 1.502 0 00.075 2.121l7.105 6.617-2.066 2.224-7.104-6.615a1.455 1.455 0 00-1.076-.401 1.5 1.5 0 00-1.044.477L47.986 56.985l-.015.01a1.5 1.5 0 00-.42 2.051 17.252 17.252 0 01-1.907 21.085 17.133 17.133 0 01-12.015 5.49c-4.592.152-9.007-1.478-12.385-4.62-6.966-6.487-7.357-17.435-.873-24.402a17.283 17.283 0 0112.651-5.51c2.812 0 5.647.688 8.245 2.106a1.5 1.5 0 002.038-.604l34.4-36.948c1.35-1.448 3.63-1.698 4.884-.535.591.548.903 1.359.882 2.284a4.056 4.056 0 01-1.074 2.628l-5.947 6.392a1.499 1.499 0 00.078 2.12l7.106 6.611-2.072 2.227z"/><path d="M32.999 61.242a6.964 6.964 0 00-4.923 2.135 6.964 6.964 0 00-1.973 4.989c.063 3.826 3.196 6.896 7.009 6.896l.116-.001a6.967 6.967 0 004.923-2.134 6.97 6.97 0 001.972-4.99c-.031-1.872-.789-3.621-2.135-4.923s-3.117-1.962-4.989-1.972zm2.997 9.798a3.985 3.985 0 01-2.816 1.221l-.067.001a4.016 4.016 0 01-4.01-3.944 3.981 3.981 0 011.128-2.854 3.987 3.987 0 012.817-1.221l.067-.001c1.046 0 2.034.399 2.788 1.129a3.979 3.979 0 011.221 2.815 3.98 3.98 0 01-1.128 2.854z"/></symbol><symbol viewBox="0 0 20 20" id="chevron_up" xmlns="http://www.w3.org/2000/svg"><path d="M0 15a.5.5 0 00.853.354l8.646-8.646 8.646 8.646a.5.5 0 00.707-.707l-9-9a.5.5 0 00-.707 0l-9 9a.498.498 0 00-.146.354z"/></symbol><symbol viewBox="0 0 204 204" id="circle" xmlns="http://www.w3.org/2000/svg"><circle cx="102" cy="102" r="100"/></symbol><symbol viewBox="0 0 25.6 25.6" id="fb" xmlns="http://www.w3.org/2000/svg"><path d="M11.922 25.08v-9.93h-1.8a.4.4 0 01-.4-.4v-2.974c0-.263.199-.394.4-.395l1.8-.001v-1.6c0-.844.01-2.361.8-3.33.799-.985 1.904-1.646 3.729-1.646 2.811 0 4.023.375 4.067.39.19.06.308.254.273.452l-.55 3.044a.401.401 0 01-.499.316c.003 0-.871-.235-1.67-.235-.487 0-1.225.105-1.225.685v1.92h3.112a.4.4 0 01.397.433l-.243 2.974a.399.399 0 01-.398.367h-2.868v9.93a.4.4 0 01-.4.4h-4.125a.4.4 0 01-.4-.4zm4.125-.4v-9.93c0-.22.18-.4.4-.4h2.9l.178-2.174h-3.078a.4.4 0 01-.4-.4v-2.32c0-.558.283-.955.693-1.19.385-.22.87-.295 1.332-.295.456 0 .925.066 1.28.131l.174.034.408-2.26-.128-.025c-.56-.104-1.644-.247-3.355-.247-1.583 0-2.46.551-3.109 1.352-.579.709-.62 1.912-.62 2.823v2a.4.4 0 01-.4.4h-1.8v2.17h1.8c.22 0 .4.18.4.4v9.93h3.325z"/><path d="M0 23.262V2.338A2.34 2.34 0 012.338 0h20.924A2.34 2.34 0 0125.6 2.338v20.924a2.34 2.34 0 01-2.338 2.338H2.338A2.34 2.34 0 010 23.262zm24.8 0V2.338C24.8 1.491 24.109.8 23.262.8H2.338A1.54 1.54 0 00.8 2.338v20.924c0 .848.69 1.538 1.538 1.538h20.924a1.54 1.54 0 001.538-1.538z"/></symbol><symbol viewBox="0 0 25.6 25.6" id="instagram" xmlns="http://www.w3.org/2000/svg"><path d="M0 23.262V2.338A2.34 2.34 0 012.338 0h20.924A2.34 2.34 0 0125.6 2.338v20.924a2.34 2.34 0 01-2.338 2.338H2.338A2.34 2.34 0 010 23.262zm24.8 0V2.338C24.8 1.491 24.109.8 23.262.8H2.338A1.54 1.54 0 00.8 2.338v20.924c0 .848.69 1.538 1.538 1.538h20.924a1.54 1.54 0 001.538-1.538z"/><path d="M4 18.519V7.079a3.085 3.085 0 013.085-3.084h11.441A3.086 3.086 0 0121.61 7.08v11.44a3.085 3.085 0 01-3.084 3.084H7.085A3.085 3.085 0 014 18.519zm16.81 0V7.079a2.287 2.287 0 00-2.284-2.284H7.085c-.05 0-.1.002-.15.006h.266v4.8H6.4l-.001-4.7A2.287 2.287 0 004.8 7.079v2.522h15.998v.8H4.801v8.118a2.286 2.286 0 002.284 2.284h11.441a2.286 2.286 0 002.284-2.284zM8.798 15.203a4.005 4.005 0 014.003-4.002 4.005 4.005 0 014.003 4.002 4.004 4.004 0 01-8.006 0zm7.206 0a3.204 3.204 0 00-6.406 0 3.204 3.204 0 006.406 0zm-5.597-.004a2.396 2.396 0 012.394-2.395 2.396 2.396 0 010 4.79 2.395 2.395 0 01-2.394-2.395zm3.987 0c0-.88-.716-1.595-1.593-1.595a1.595 1.595 0 000 3.19c.877 0 1.593-.714 1.593-1.595zM8.001 9.6V4.8h.8v4.8h-.8zm1.599 0V4.8h.8v4.8h-.8zm6.405-2.398c0-.881.71-1.606 1.593-1.606.882 0 1.594.725 1.594 1.606 0 .882-.712 1.606-1.594 1.606a1.6 1.6 0 01-1.593-1.606zm2.387 0a.802.802 0 00-.794-.805.8.8 0 00-.793.805.8.8 0 00.793.805.8.8 0 00.794-.805z"/></symbol><symbol viewBox="0 0 736 412.887" id="logo" xmlns="http://www.w3.org/2000/svg"><path d="M473.367 267.387L460.5 255.893l-133.714-.006-133.714-.006-.286 9.738c-.226 7.706-.6 9.798-1.786 10.025-1.573.3-29.105-21.397-29.75-23.444-.545-1.734 28.409-24.664 30.25-23.957 1.188.455 1.5 2.559 1.5 10.106v9.532h267.802l12.083-10.977c6.646-6.038 13.146-11.244 14.444-11.57 1.3-.326 3.997-.449 5.996-.273l3.634.32-12.184 11-12.183 11 5.217.302 5.217.303 11.167-10.147c14.193-12.898 14.584-13.143 20.37-12.767l4.737.309-12.253 11-12.254 11 5.133.303c5.74.34 4.368 1.251 21.903-14.553 9.033-8.141 9.224-8.25 14.412-8.231l5.259.018-6 5.751c-3.3 3.163-8.89 8.33-12.42 11.481l-6.42 5.73H527v8h-10.421l7.46 6.74c4.104 3.707 9.711 8.873 12.461 11.479l5 4.739-5.141.021c-5.746.024-6.308-.355-22.66-15.283l-8.55-7.805-5.272.305-5.273.305 12.307 11 12.307 11-3.764.32c-2.07.175-4.77.066-6.001-.243-1.23-.309-7.69-5.515-14.355-11.57l-12.117-11.007-5.24.019-5.241.018 6 5.737c3.3 3.156 8.838 8.322 12.307 11.481l6.307 5.745h-10.88zm-312.222-95.074c10.181-15.392 13.574-19.787 15.899-20.597 3.88-1.353 3.988-4.62.199-6.05-3.332-1.257-3.086-.934-17.549-23.035l-11.616-17.75 43.211.045 43.211.044 14.5 19.402 14.5 19.4 124.195.055 124.195.054-2.315-5.25c-6.123-13.889-5.928-28.25.384-28.25 1.833 0 3.44 1.532 6.815 6.5 6.205 9.134 8.183 11.066 21.726 21.217 6.6 4.947 12 9.712 12 10.587 0 .876-3.818 4.316-8.483 7.644-11.552 8.24-21.32 17.641-25.53 24.572-3.79 6.24-5.606 7.522-8.478 5.984-5.172-2.768-3.698-15.97 3.657-32.754.437-.997-24.623-1.25-123.433-1.25H264.252l-14.876 19.494-14.876 19.494-43.149.006-43.148.006 12.942-19.567zm21.883-1.377c5.575-8.22 10.11-15.307 10.079-15.75-.031-.443-1.385-.944-3.008-1.113-3.326-.347-4.711 1.278-17.95 21.058l-7.194 10.75h7.938zm18.668-.555c5.608-8.25 10.22-15.365 10.25-15.81.03-.446-1.634-.671-3.696-.5-3.622.3-4.098.821-13.946 15.31-5.608 8.25-10.22 15.364-10.25 15.81-.03.446 1.633.67 3.696.5 3.622-.3 4.097-.821 13.946-15.31zm18.066.234c5.644-8.379 10.257-15.572 10.25-15.984-.007-.413-1.557-.75-3.444-.75-3.309 0-3.815.56-14 15.517-5.813 8.534-10.568 15.734-10.568 16 0 .265 1.687.475 3.75.467 3.716-.017 3.844-.156 14.012-15.25zm18.093-.016c5.58-8.405 10.145-15.605 10.145-16 0-.395-1.568-.718-3.484-.718-3.377 0-3.787.454-13.317 14.75-5.408 8.112-10.167 15.312-10.575 16-.542.913.312 1.25 3.172 1.25h3.914l10.145-15.282zm-44.463-28.968c-.4-.688-5.234-7.888-10.744-16-10.003-14.728-10.024-14.75-13.883-14.75-3.01 0-3.687.306-3.065 1.383.44.761 5.277 7.961 10.75 16 9.923 14.58 9.958 14.617 13.808 14.617 2.809 0 3.662-.34 3.134-1.25zm17.984 0c-.408-.688-5.167-7.888-10.575-16-9.53-14.296-9.94-14.75-13.317-14.75-1.916 0-3.484.323-3.484.718 0 .395 4.565 7.595 10.145 16l10.145 15.282h3.914c2.86 0 3.714-.337 3.172-1.25zm18.57.5c-.03-.413-4.642-7.5-10.25-15.75-9.849-14.489-10.324-15.01-13.946-15.31-2.063-.171-3.75-.047-3.75.276 0 .733 17.718 27.4 19.79 29.784 1.485 1.71 8.267 2.54 8.156 1zm18.044 0c-.005-.413-4.62-7.5-10.254-15.75-9.884-14.473-10.376-15.011-13.99-15.31-2.06-.171-3.746-.042-3.746.288 0 .664 9.883 15.576 16.75 25.272 3.952 5.58 4.79 6.25 7.838 6.25 1.876 0 3.408-.338 3.402-.75zm-34.119-71.606c-15.478-6.758-29.271-15.154-42.621-25.942-9.676-7.82-9.423-8.453 8-20.017C197.233 12.63 218.702.865 223.727.19c6.229-.836 6.773.694 4.398 12.367-1.099 5.402-2.209 11.735-2.466 14.073l-.469 4.25h229.633l11.838-5.083C492.06 14.895 523.26 6.136 532.94 7.193c9.902 1.081 8.527 7.533-4.674 21.93C525.369 32.28 523 35.26 523 35.744c0 .484 2.3 3.75 5.112 7.258C536.782 53.82 539 57.51 539 61.111c0 4.692-1.525 5.77-8.161 5.77-11.186 0-34.689-6.835-60.583-17.618l-15.328-6.382H225.71l.592 6.332c.325 3.483 1.351 9.358 2.28 13.055 3.09 12.304-.643 14.4-14.71 8.257zm-83.713 340.446c-8.165-2.82-8.584-3.577-5.574-10.075 1.393-3.006 2.68-5.613 2.861-5.794.181-.18 1.843.594 3.692 1.721 4.741 2.89 14.555 2.875 18.246-.029l2.653-2.087-7.032-7.529c-8.337-8.927-17.497-22.313-22.538-32.937-3.867-8.15-10.886-28.372-12.012-34.61l-.677-3.75h15.146l1.074 4.25c3.883 15.366 11.775 33.25 19.747 44.75 5.617 8.104 13.538 17.991 14.417 17.996.875.005 8.916-16.531 12.642-25.996 3.056-7.763 10.176-29.3 12.149-36.75l1.125-4.25h7.962c4.378 0 7.96.337 7.96.75 0 2.17-8.687 29.069-12.636 39.13-8.673 22.095-21.984 45.275-29.346 51.106-7.74 6.131-19.363 7.728-29.859 4.104zM0 405.023c0-6.976.059-7.142 2.532-7.142 13.136 0 26.325-23.19 30.428-53.5.596-4.4 1.319-9.463 1.607-11.25l.524-3.25H23.916l-2.958-6.593c-1.627-3.627-2.958-6.777-2.958-7 0-.224 16.2-.407 36-.407h36v96H76v-82H48.258l-.707 7.25c-1.807 18.503-7.244 38.358-14.224 51.937-7.929 15.427-14.868 21.168-27.132 22.45L0 412.166zm276-11.567v-18.424l-5.75 2.174c-4.906 1.856-7.806 2.175-19.75 2.175-13.003 0-14.392-.186-19.5-2.602-6.952-3.288-10.61-6.946-13.899-13.898-2.416-5.108-2.601-6.498-2.601-19.5 0-7.7.373-17.038.83-20.75l.83-6.75h13.944l-.802 8.75c-.441 4.812-.802 13.78-.802 19.929 0 12.505.974 14.915 7.605 18.82 5.208 3.069 22.751 2.867 32.645-.375l7.25-2.375v-44.749h14v96h-14zm42-29.575v-48h14v15c0 8.25.395 15 .878 15s2.493-.675 4.468-1.5c4.67-1.951 14.28-1.91 22.01.092 7.51 1.946 20.5 1.522 25.894-.845l3.75-1.645V315.88h14v96h-14v-16.607c0-15.427-.124-16.555-1.75-15.88-9.653 4.011-13.877 4.226-27.017 1.375-11.186-2.426-17.866-2.136-24.105 1.047L332 383.92v27.96h-14v-48zm20 2.895c6.164-2.358 12.319-2.173 23.328.702 7.34 1.917 17.179 1.463 23.422-1.082 4.071-1.66 4.25-1.913 4.25-6.028v-4.295l-5.25 1.997c-6.147 2.338-15.549 2.131-27.664-.608-7.858-1.777-13.009-1.312-20.6 1.86-3.168 1.324-3.486 1.826-3.486 5.508 0 2.228.112 4.05.25 4.05.137 0 2.725-.947 5.75-2.104zm93-2.851V315.88h13.975l.263 36.665.262 36.665 27.963-36.665 27.964-36.665H516v96h-13.976l-.262-36.944-.262-36.944-28 36.694-28 36.694-7.25.294-7.25.293zm113-.044v-48h14v39.238l9.25-.43c6.014-.28 10.367-1.02 12.443-2.116 2.234-1.179 6.74-6.937 15-19.172l11.807-17.488 8.25-.016c4.537-.009 8.25.195 8.25.452 0 .258-6.75 10.128-15 21.933-8.25 11.806-14.976 22.058-14.946 22.782.03.724 4.642 8.06 10.25 16.303 10.677 15.693 14.193 19.09 20.867 20.157l3.829.612v14.014l-6.758-.484c-11.711-.838-16.08-4.448-27.398-22.645-14.786-23.77-13.563-22.198-16.418-21.112-1.403.533-6.348 1.262-10.988 1.618l-8.438.649v41.705h-14zm108 0v-48h13.975l.263 36.242.262 36.242L694 352.17l27.5-36.194 7.25-.048 7.25-.047v96h-13.975l-.263-36.707-.262-36.707-28 36.702-28 36.702-6.75.005-6.75.005z"/></symbol><symbol viewBox="0 0 22 16" id="select_icon" xmlns="http://www.w3.org/2000/svg"><path d="M0 3h14v3H0V3zm0 4h14v3H0V7zm0 4h14v3H0v-3zm15.5-2l3 3 3-3zm6-1l-3-3-3 3z"/></symbol><symbol viewBox="0 0 25.6 25.6" id="vk" xmlns="http://www.w3.org/2000/svg"><path d="M16.9 18.632l-1.59-2.012a1.101 1.101 0 00-.21-.205l-.056-.032-.024.054-.362 1.62-.061.335c-.103.345-.327.698-.783.787l-.28.018h-1.84c-3.273 0-6.228-4.66-8.296-10.467l-.015-.055c-.07-.349-.105-.736.065-1.047.197-.36.572-.475.966-.487l2.827.02c.175 0 .33.115.38.282.636 2.09 1.416 3.367 2.371 4.823l.027.047c.103.218.32.156.432-.017l.068-.202.001-3.28c0-.482-.22-.55-.753-.626a.4.4 0 01-.324-.517c.257-.815 1.1-1.232 2.27-1.232l1.079-.025c.872 0 1.663.374 1.663 1.49v4.315l.077.043c.143.05.423.06.65-.296.98-1.382 2.11-3.034 2.269-3.897a.407.407 0 01.032-.1c.2-.42.745-.715.964-.782a.558.558 0 01.166-.028l2.945.002.182.003c.07.008.137.023.204.047.177.064.301.18.384.312.16.263.138.557.154.674a.38.38 0 010 .12c-.276 1.73-2.263 3.666-3.098 4.923-.215.296-.218.516-.018.759l2.772 3.47c.32.458.303.958-.038 1.315-.221.234-.544.364-.884.403l-.32.01H17.95l.052-.003c-.387.051-.688-.109-.914-.336l-.187-.226zm1.05-.235l2.965.001c.313.018.523-.078.606-.165.029-.03.069-.078.03-.182l-.064-.116-2.743-3.432c-.47-.573-.394-1.199-.018-1.718.794-1.196 2.5-2.905 2.903-4.316l.054-.24-.013-.153-.022-.117h-2.983l-.095.045c-.09.05-.2.128-.28.203l-.08.1-.099.354c-.341.955-1.195 2.23-1.924 3.269l-.35.495-.223.273c-.588.573-1.459.468-1.814-.01a.71.71 0 01-.145-.424v-4.36c0-.516-.235-.69-.853-.69l-1.079.025c-.52 0-.873.089-1.11.217l-.131.085.092.033c.395.176.746.52.746 1.241l-.003 3.332c-.077 1.04-1.348 1.497-1.917.69l-.077-.132c-.849-1.295-1.59-2.491-2.21-4.242l-.165-.505-2.527-.016c-.26.007-.275.077-.27.07-.018.03-.038.11-.019.29l.031.19.395 1.064c2.066 5.35 4.681 8.841 7.135 8.841l1.857.001c.252.013.306-.268.32-.458l.009-.057.369-1.653.01-.04c.052-.153.13-.301.252-.416a.726.726 0 01.606-.198c.316.042.592.267.817.541l1.608 2.036c.165.237.274.259.356.248l.053-.004z"/><path d="M0 23.262V2.338A2.34 2.34 0 012.338 0h20.924A2.34 2.34 0 0125.6 2.338v20.924a2.34 2.34 0 01-2.338 2.338H2.338A2.34 2.34 0 010 23.262zm24.8 0V2.338C24.8 1.491 24.109.8 23.262.8H2.338A1.54 1.54 0 00.8 2.338v20.924c0 .848.69 1.538 1.538 1.538h20.924a1.54 1.54 0 001.538-1.538z"/></symbol></svg>